<svg width="24" height="24" viewBox="0 0 24 24" fill="none" xmlns="http://www.w3.org/2000/svg">
<path d="M18.9705 7.08705L16.8455 17.0246C16.7622 17.3787 16.6163 17.6079 16.408 17.7121C16.2205 17.7954 15.9809 17.7537 15.6892 17.5871L12.4705 15.2121L10.908 16.7121C10.8038 16.8162 10.7205 16.8891 10.658 16.9308C10.5538 16.9933 10.4184 17.0246 10.2517 17.0246L10.5017 13.7433L16.4705 8.33705C16.5538 8.27455 16.5747 8.22247 16.533 8.1808C16.5122 8.1183 16.4497 8.09747 16.3455 8.1183C16.2622 8.1183 16.1684 8.14955 16.0642 8.21205L8.68924 12.8683L5.50174 11.8683C5.14757 11.7641 4.9809 11.6079 5.00174 11.3996C5.02257 11.1912 5.24132 11.0037 5.65799 10.8371L18.0642 6.0558C18.3767 5.95164 18.6267 5.9933 18.8142 6.1808C19.0017 6.34747 19.0538 6.64955 18.9705 7.08705Z" fill="white"/>
</svg>
