<svg width="16" height="13" viewBox="0 0 16 13" fill="none" xmlns="http://www.w3.org/2000/svg">
<path d="M14.3438 3.25C14.3646 3.33333 14.375 3.46875 14.375 3.65625C14.375 5.15625 14.0104 6.60417 13.2812 8C12.5312 9.47917 11.4792 10.6562 10.125 11.5312C8.64583 12.5104 6.94792 13 5.03125 13C3.19792 13 1.52083 12.5104 0 11.5312C0.229167 11.5521 0.489583 11.5625 0.78125 11.5625C2.30208 11.5625 3.66667 11.0938 4.875 10.1562C4.14583 10.1562 3.5 9.94792 2.9375 9.53125C2.39583 9.09375 2.02083 8.55208 1.8125 7.90625C2.02083 7.92708 2.21875 7.9375 2.40625 7.9375C2.69792 7.9375 2.98958 7.90625 3.28125 7.84375C2.53125 7.67708 1.90625 7.29167 1.40625 6.6875C0.90625 6.08333 0.65625 5.39583 0.65625 4.625V4.5625C1.11458 4.83333 1.60417 4.97917 2.125 5C1.6875 4.6875 1.33333 4.29167 1.0625 3.8125C0.791667 3.33333 0.65625 2.8125 0.65625 2.25C0.65625 1.66667 0.8125 1.11458 1.125 0.59375C1.9375 1.61458 2.92708 2.42708 4.09375 3.03125C5.28125 3.63542 6.54167 3.96875 7.875 4.03125C7.83333 3.78125 7.8125 3.53125 7.8125 3.28125C7.8125 2.69792 7.95833 2.15625 8.25 1.65625C8.54167 1.13542 8.9375 0.729167 9.4375 0.4375C9.9375 0.145833 10.4792 0 11.0625 0C11.5417 0 11.9792 0.09375 12.375 0.28125C12.7917 0.46875 13.1562 0.71875 13.4688 1.03125C14.2188 0.885417 14.9167 0.625 15.5625 0.25C15.3125 1.02083 14.8333 1.625 14.125 2.0625C14.75 1.97917 15.375 1.80208 16 1.53125C15.5417 2.19792 14.9896 2.77083 14.3438 3.25Z" fill="white"/>
</svg>
